<svg xmlns="http://www.w3.org/2000/svg" id="Calque_1" data-name="Calque 1" viewBox="0 0 1160.02 220.04"><defs><clipPath id="clippath"><path d="M387.73.02H772.3v220H387.73z" class="cls-1"/></clipPath><clipPath id="clippath-1"><path d="M772.29.02h387.72v220H772.29z" class="cls-1"/></clipPath><clipPath id="clippath-2"><path d="M.01.02h387.72v220H.01z" class="cls-1"/></clipPath><style>.cls-1{fill:none}.cls-5{fill:#a36af7}</style></defs><g style="clip-path:url(#clippath)"><path d="M676.9 186.68c-.5.46-.96 1.02-1.43 1.6-6.18 7.7-11.67 17.01-16.71 27.36-.6 1.24-1.22 2.47-1.83 3.69h67.3c.22-.96.44-1.89.69-2.81 2.18-7.68 2.85-15.87 2.45-24.5-.17-3.63-.36-7.26-1.25-10.57-2.98-11.07-7.88-16.27-14.07-17.09-3.07-.4-6.12.68-9.09 2.23-9.08 4.77-17.64 12.1-26.08 20.08v.02ZM592.95 220.02c2.64-4.19 5.27-8.45 8.25-11.68 2.92-3.17 5.98-5.38 9.38-5.04 2.8.28 5.5 4.67 6.18 10.09.28 2.23.32 4.45.18 6.64h16.8c.31-.76.61-1.52.91-2.29 2.22-5.94 4.3-12.1 6.48-18.1 2.48-6.8 4.61-14.06 6.57-21.49 1.75-6.62 2.45-13.76 2.12-21.19-.28-6.38-1.9-11.05-4.85-13.72-1.81-1.64-3.74-2.65-5.72-2.67-4.68-.06-9.32 1.02-13.61 4.96-5.33 4.9-10.36 10.97-14.92 18.34-9.38 15.17-17.71 32.48-25.64 50.58-.82 1.85-1.62 3.71-2.43 5.58h10.3ZM503.15 220.02c-.15-1.18-.4-2.33-.77-3.49-.81-2.47-1.56-5.04-2.23-7.66-1.36-5.24-2.04-10.83-1.89-16.77.16-6.46 1.94-9.47 5.15-8.87 2.09.38 4.05 1.87 6.1 2.53 2.65.86 4.33-.94 5.33-5.9 1.17-5.78 1.57-11.9 1.39-18.02-.28-8.73-.9-17.47-2.08-25.88-2.19-15.55-3.27-31.46-4.35-47.39-.97-14.32-2.06-28.57-3.2-42.83-.69-8.65-1.37-17.31-1-26.12.27-6.54.5-13.1.95-19.6h-5.26c-.61 1.4-.42 3.13-.42 4.73 0 2.89-.19 5.68-.87 8.27-1.37 5.2-3.7 6.52-6.19 3.35-1.79-2.27-3.15-5.34-4.02-9.31-.55-2.45-.83-5.24-1.98-7.06h-8.22c-.11 1.1 0 2.17.13 3.25 1.51 13.06 3.66 25.66 6.56 37.74 2.92 12.16 6.44 23.65 10.32 34.67 3.57 10.17 6.39 21.17 8.76 32.62.55 2.63.99 5.32 1.22 8.15.64 7.96.57 15.97.34 23.93-.51 18.2-8.26 26.64-15.17 24.98-3.54-.84-6.8-3.17-9.86-6.74-1.98-2.31-3.95-4.71-5.93-7.02-1.81-2.13-3.75-3.59-5.85-4.03-3.71-.78-6.64 4.61-6.6 12.06.03 4.92.8 9.45 1.84 13.84 1.47 6.2 3.6 11.48 5.69 16.83 4.12 10.59 8.75 20.26 13.47 29.73h18.63ZM772.29 32.18V45.3c-2.15-.42-3.66-3.19-5.22-5.68-1.07-1.71-1.95-3.85-2.95-5.74-1.29-2.43-2.63-2.87-3.51-1.22-.99 1.85-1.01 4.75.22 7.34 2.76 5.8 5.54 11.58 8.57 16.83 1.5 2.61 2.62 5.46 2.89 9.47v11.8c-1.03-.16-1.37-1.99-1.91-3.25-2-4.69-3.65-9.87-5.54-14.71-1.53-3.95-3.55-6.84-5.38-10.15-1.14-2.07-2.29-4.11-3.28-6.48-5.37-12.72-12.1-21.19-20.18-25.48-4.05-2.15-8.1-.9-12.13.28-7.92 2.29-14.52 9.67-20.37 20.32-4.52 8.23-9.67 14.75-15.09 20.6-4.09 4.41-11.64.94-13.95-9.11-1.21-5.26-2.51-10.47-3.64-15.81-2.38-11.11-5.17-21.75-9.24-30.9-.4-.9-1.07-1.8-.58-3.37h10.93c.74 1.26 1.02 3.05 1.41 4.74 1.14 4.99 2.58 9.57 4.37 13.78 3.93 9.27 11.63 10.01 16.3 5.64 3.13-2.93 5.8-7.04 8.31-11.68 2.24-4.17 4.11-9.11 6.71-12.52h53.98c.93.8 1.4 2.31 1.75 4.11.9 4.55 1.77 9.13 2.59 13.76.88 4.96 1.99 9.69 4.34 12.76.28.36.41 1.02.6 1.54v.02ZM767.32 220.02h4.97v-8.29c-1.27-2.53-3-3.23-4.59-4.43-3.17-2.35-6.43-4.23-9.51-6.98-3.53-3.15-5.88-8.19-6.32-16.03-.33-5.88-.3-11.82-.05-17.71.22-5.18 2.6-7.56 5.03-5.44 1.65 1.44 2.75 3.99 3.57 7.08 1.76 6.6 3.74 12.94 5.96 18.96 1.52 4.13 3.28 7.88 5.91 9.43v-24.3c-.59-2.43-1.64-4.05-2.62-5.84-3.09-5.64-6.25-11.19-8.78-17.88-4.08-10.79-8.03-21.73-13.12-30.9-3.29-5.92-6.9-10.27-11.3-11.84-3.6-1.3-7.23-2.23-10.92-2.13-3.44.1-6.54 2.23-9.44 5.6-1.37 1.6-2.45 3.77-3.01 6.8-.62 3.41-.17 5.74 1.48 7.34 1.36 1.3 2.82 1.93 4.31 2.43 2.52.84 5.09.66 7.62 1.32 3.86.98 7.75 1.63 11.35 4.79 5.55 4.85 9.29 12.76 10.73 24.68 1.04 8.51.32 16.45-1.48 24.24-1.18 5.06-2.4 10.09-2.81 15.73-.43 5.78.52 9.53 3.26 11.86 1.59 1.36 3.29 1.89 5.02 2.19 2.55.42 5.1-.1 7.64-.02 3.5.1 6.05 3.45 7.1 9.37v-.02ZM516.39.02h7.23c.28 1.32-.14 2.33-.39 3.39-1.32 5.6-2.15 11.5-2.68 17.59-.21 2.39-.29 4.82.18 7.14.68 3.43 1.97 4.13 3.34 1.65 1.71-3.11 3-6.96 4.34-10.71 1.85-5.18 3.14-11.06 5.1-16.11.41-1.04.79-2.09 1.3-2.95h19.39c1.47 3.67 3.11 7.06 4.65 10.61 1.61 3.69 1.66 7.98.61 12.32-.72 2.99-1.71 3.69-3.03 1.6-3.44-5.5-7.53-7.96-11.66-10.15-4.7-2.49-8.88-.12-12.5 6.24-3.32 5.8-5.04 13.68-6.87 21.43-2.74 11.64-3.3 24.26-4.28 36.73-.89 11.38-.8 22.73-.07 34.09.26 3.99-.16 7.88-.36 11.8-.07 1.28-.4 2.35-1.09 2.57-.61.2-1-.72-1.34-1.6-.43-1.06-.56-2.35-.72-3.63-.76-5.96-1.07-12.08-1.46-18.18-.46-7.06-1.72-13.9-1.9-21.03-.3-11.27-1.49-22.35-1.58-33.68-.03-4.35-.16-8.77-.5-13.1-.2-2.57.04-5.02.22-7.52.6-8.47 1.3-16.93 2.93-24.92.28-1.34.55-2.63 1.14-3.55zM418.57.02h9.53c.61 1.02.89 2.47 1.24 3.83 2.63 10.23 5.68 19.94 9.25 28.97 1.76 4.47 3.84 8.39 6.13 11.82 2.63 3.93 5.29 7.84 7.64 12.4 2.35 4.55 4.62 9.29 6.64 14.48.2.52.38 1.08.52 1.67.37 1.5.75 3.05.14 4.61-.55 1.4-1.38 1.28-2.13 1-1.87-.68-3.57-2.11-4.94-4.81-2.98-5.86-6.4-10.53-9.77-15.43-6.27-9.09-13-16.53-19.76-23.95-1.63-1.79-3.16-3.93-4.62-6.22-1.06-1.65-1.61-3.75-1.59-6.5.02-2.41-.01-4.82.35-7.16.74-4.8.69-9.89 1.4-14.7V.01ZM592.64.02h9.21c.92 4.21.41 8.59.36 12.9-.07 6.74-1.42 12.04-4.62 15.03-.77.72-1.32 2.01-1.62 3.57-1.13 5.68-2.29 11.28-2.59 17.53-.44 8.81-1.28 17.51-2.09 26.22-.21 2.23-.76 4.23-2.01 4.69-1.28.48-2.03-1.22-2.63-3.15-1.56-4.94-2.24-10.49-2.32-16.21-.15-11.29.9-22.09 3.18-32.52 1.8-8.26 4.23-16.17 4.44-25.56.02-1.04.33-1.83.7-2.51v.02Z" class="cls-5"/><path d="M456.25.02h12.49c1.85 2.29 2.15 6.24 1.61 9.53-1.48 9.21 1.04 15.91 3.28 22.57 2.36 7.06 5.09 13.64 7.52 20.62.41 1.16.82 2.31 1.21 3.51.56 1.77.81 3.63.25 5.54-.6 2.03-1.63 2.01-2.63 1.77-1.32-.32-2.52-1.32-3.69-2.57-4.1-4.33-6.88-11.19-9.52-18.54-2.76-7.68-4.18-16.51-5.85-25.1-.96-4.95-2.11-9.55-3.77-13.68-.42-1.04-1.06-1.99-.88-3.67v.02ZM563.06.02h8.22c.26.64.33 1.38.28 2.15-.58 10.41.47 20.6 1 30.86.32 6.08.31 12.16 0 18.24-.11 2.17-.12 4.35-.17 6.52-.02 1.1-.1 2.17-.29 3.21-.31 1.6-.76 2.95-1.66 3.27-.89.32-1.43-.94-1.87-2.17-.95-2.61-1.58-5.58-1.64-8.77-.32-17.07-2.33-33.58-4.01-50.2-.11-1.08-.25-2.13.15-3.11ZM766.52 99.43c.62-.34 1.09.2 1.56.8 1.4 1.71 2.8 3.37 4.21 5.06v8.61c-1.47-4.39-4.02-7.4-5.23-12.12-.2-.78-.63-1.38-.54-2.35M702.38 94.27c0 1.24-.28 2.71-.75 3.93-2.93 7.56-6.65 12.62-11.41 14.3-.27.1-.54.18-.81.1-1.41-.46-1.9-2.87-1.06-5.12 1.07-2.85 2.52-4.88 3.81-7.26 1.7-3.11 3.56-5.82 5.53-8.25.75-.92 1.54-1.65 2.43-1.93 1.32-.44 2.24 1.16 2.26 4.25h.01ZM523.74 158.49c-.04 3.49-.24 6.76-.91 9.83-.56 2.51-1.15 3.13-2.45 2.83-.89-.2-1.51-1.5-1.61-3.97-.24-5.26.34-10.27 1.43-15.03.31-1.34.8-2.45 1.63-2.33.81.12 1.21 1.3 1.52 2.67.44 1.97.37 4.09.41 6h-.01ZM670.92 119.97c-.76 2.09-1.82 3.47-2.92 4.73-1.2 1.36-2.29 3.03-3.33 4.83-2.4 4.13-3.48 9.49-3.61 15.73-.04 2.09-.07 4.21 0 6.3.17 4.9-2.49 9.11-4.54 9.91-.69.28-1-.5-1.1-1.79-.13-1.85-.3-3.71-.44-5.56-.47-6.4-2.25-11.68-3.6-17.33-.57-2.37-1.1-4.86-2.01-6.82-3.48-7.48-7.73-11.03-12.83-9.65-7.64 2.07-14.49 8.11-20.65 17.39-2.54 3.83-5.07 7.7-7.6 11.56-3.12 4.77-5.8 10.45-8.22 16.59-1.64 4.19-3.53 7.82-5.47 11.38-.48.88-1.1 2.15-1.7 1.3-.66-.94-.38-2.63-.02-3.91 1.34-4.83 2.81-9.47 4.62-13.64 1.2-2.75 2.28-5.64 3.19-8.81 1.82-6.32 3.99-12.14 6.45-17.49.45-.98.91-1.93 1.26-3.05 3.31-10.51 8.03-18.64 11.76-28.43.17-.44.36-.84.56-1.2 5.03-8.27 10.26-15.87 16.64-19.38 2.8-1.54 5.64-2.61 8.56-2.53 1.1.02 2.19.36 3.26.76 1.75.66 3.12 2.65 4.01 5.8.51 1.81.99 3.69 1.41 5.6 1.81 8.25 4.7 14.83 7.89 20.96 1.69 3.25 3.76 4.81 6.05 5.34.56.56 1.17.16 1.75.28.34.06.66.12.59 1.08l.03.06ZM563.73 220.02c-1.1-.5-1.94-1.65-2.59-3.45-.21-.58-.39-1.18-.57-1.75-.48-1.54-1.12-2.69-2.19-2.55-1.01.12-1.88 1.73-2.27 3.73-.27 1.38-.15 2.73.01 4.03h7.61ZM712.64 150.16c-.51 1.32-1.21.86-1.81.66-1.08-.34-2.15-.82-3.22-1.32-2.17-1.04-4.27-.62-6.22 1.48-2.61 2.79-5.42 4.05-8.34 4.51-.79.12-1.62.36-2.41-.62.6-1.95 1.45-3.11 2.4-3.97 5.1-4.49 10.35-6.14 15.82-3.21.68.36 1.41.38 2.11.58.66.2 1.29.52 1.66 1.87v.02Z" class="cls-5"/><path d="M690.09 110.56c-.37-.06-.67.06-.79-.62-.1-.62.1-1.08.29-1.44.99-1.89 1.99-3.77 3.01-5.6a58.5 58.5 0 0 1 5.38-8.13c.33-.42.65-.82 1-1.12.63-.54 1.28-1.56 1.98-.6.43.58.22 2.71-.44 4.53-.81 2.23-1.8 4.15-2.89 5.84-1.96 3.07-4.1 5.44-6.52 6.7-.37.18-.74.34-1.02.46zM579.71 210.65c-.81-.04-1.25-1.56-.87-2.75.42-1.32.96-2.39 1.58-3.33 1.24-1.85 2.49-3.59 3.94-4.73.3-.24.65-.6.92-.08.34.68.1 1.44-.11 2.09-.23.74-.48 1.5-.75 2.15-1.12 2.65-2.52 4.55-4.05 6.1-.24.24-.5.4-.66.54ZM540.31 220.02c1.22-.7 2.13-2.41 2.89-4.47.85-2.29 1.41-4.9 1.8-7.66.9-6.3 1.44-12.72 1.61-19.26.07-2.53.32-4.98.82-7.28.38-1.69.82-3.53 1.91-3.63 1.18-.1 1.66 1.77 2.09 3.59.14.6.22 1.24.36 1.81.19.78.38 1.58.62 2.29.28.8.6 1.73 1.18 1.38.63-.4.95-1.4.93-2.85.03-.94-.2-1.83-.37-2.75-.19-1.02-.48-1.99-.59-3.03-.76-7.28-2.26-14.08-3.27-21.19-.53-3.79-1.42-7.32-2.64-10.45-1.55-3.93-3.39-3.53-4.43.98-.74 3.19-1.11 6.58-1.18 10.11-.11 5.48.39 10.85.84 16.21.47 5.5.72 10.93-.09 16.47-1 6.82-2.14 13.48-3.91 19.68-.51 1.79-1 3.67-1.32 5.62-.37 2.15-.04 3.77.77 4.43h1.97ZM667.59 56.72c2.47-.2 4.06 2.75 5.21 8.91.15.82.2 1.73.24 2.61.2 4.25-.78 6-2.79 5.06-2.74-1.3-4.6-5.3-5.05-10.91-.3-3.71.55-5.72 2.4-5.68ZM684.33 77.74c-1.77 1.64-3.24 1.69-4.73.56-.2-.16-.41-.4-.44-.9-.05-.72.26-1 .49-1.1 1.53-.68 3-.34 4.67 1.44zM387.73 210.59V195c3.39 1.12 6.77 2.17 10.16 3.27.49.16.97.4 1.43.78 1.38 1.12 1.63 3.59.56 5.76-.78 1.58-1.75 2.63-2.79 3.39-2.49 1.79-5.05 2.91-7.73 2.69-.55-.1-1.09-.2-1.63-.3h.01ZM434.57 220.02c-1.31-2.79-3.08-5.1-4.57-5.46-.81-.2-1.51.12-2.02 1.28-.5 1.14-.34 2.29.04 3.37.1.28.21.54.31.82h6.25ZM387.73 151.27v-26.1c1.05 2.25 2.17 4.41 3.34 6.46.96 1.67 1.81 3.53 2.59 5.52.38.94.72 1.95 1.01 3.01 1.5 5.64.33 10.41-2.81 11.46-.58.2-1.2.18-1.79.26-.82.08-1.59-.18-2.34-.62ZM389.24 43.7c-.03-5.48 1.81-8.89 4.7-10.73.96-.62 1.93-.66 2.87.2.66.6.97 1.56.89 3.13-.31 6.38-2.61 11.33-5.73 12.18-1.7.46-2.74-1.34-2.73-4.77v-.02ZM399.69 9.99c.94 3.43.9 6.52.24 9.61-.18.84-.56 1.04-.84.02-.13-.48-.25-1.02-.27-1.54-.1-2.71.06-5.32.87-8.11zM415.83 35.89c1.49 1.61 2.26 4.33 3.02 6.96.8 2.79 1.79 5.26 2.87 7.64 1.98 4.35 4.52 6.02 7.35 6.3 1.15.12 2.31.14 3.44 0 1.97-.24 4.35 5.68 4.48 8.95.07 1.5-.23 2.25-.97 2.45-.97.26-1.94.62-2.91.98-3.41 1.3-6.25 5.14-9.29 8.17-2.41 2.41-4.07 6.14-5.44 10.69-1.92 6.42-2.24 13.42-1.62 20.5 1.22 13.88 3.88 26.64 8.02 38.06 1.94 5.34 3.93 10.63 5.92 15.89 2.67 7.08 5.85 13.12 9.29 18.64 1.77 2.85 3.27 6.22 4.78 9.55.46 1.04 1.17 2.43.63 3.73-.56 1.34-1.45.54-2.11-.28-2.1-2.61-4.22-5.16-6.09-8.43-1.29-2.23-2.57-4.47-4.05-6.2-3.66-4.29-7.01-9.41-10.11-15.23-.24-.46-.48-.94-.75-1.28-4.42-5.48-7.87-13.32-11.83-19.9-5.34-8.87-8.93-20.22-11.54-32.92-1.74-8.47-2.38-17.41-2.06-26.6.2-5.56 1.46-9.57 3.99-11.96 2.62-2.49 5.26-5 7.49-8.83 1.41-2.43 2.81-4.92 4.15-7.54 2.7-5.24 3.59-11.8 3.31-19.38l.02.04ZM558.67 105.53c-.16 2.07.2 4.43.47 6.8.76 6.88 1.22 13.92 2.9 20.28.94 3.53 1.92 6.94 3.25 9.93.44.98.87 1.97 1.28 3.03.34.86.73 1.79.39 2.99-.35 1.2-.9 1.46-1.56 1.32-.85-.16-1.56-.92-2.21-1.99-2.46-4.11-3.9-9.49-4.72-15.57s-1.07-12.38-1.63-18.56c-.37-3.93-.86-7.76-2.01-11.11-1.32-3.83-2.33-4.11-3.96-.92-.16.3-.29.68-.45.96-.61 1.02-1.12.84-1.38-.7-.36-2.11-.48-4.33-.29-6.54.21-2.61.46-5.2.7-7.82.31-3.41.35-6.8-.12-10.17-.12-.84-.27-1.69-.5-2.43-.73-2.31-1.87-2.73-2.94-1.02-.96 1.54-1.59 3.63-2.16 5.78-1.02 3.93-1.71 8.11-2.35 12.36-.75 5.08-1.57 10.11-2.53 15.05a52 52 0 0 1-1.79 6.7c-.35 1.02-.75 1.89-1.28 2.53-1.86 2.29-3.73.44-3.92-3.93-.1-2.45.19-4.85.51-7.18.19-1.38.4-2.77.71-4.05 1.97-8.02 2.87-16.65 3.69-25.32.46-4.88 1.19-9.63 2.06-14.3.9-4.86 2.36-8.93 4.13-12.62 1.24-2.55 2.72-4.05 4.44-4.67 2.36-.86 4.48 1.08 5.69 5.36 1.23 4.33 2.14 8.95 2.68 13.84 1.44 12.96 2.3 26.08 2.91 39.28.04.76 0 1.54 0 2.71v-.04ZM575.26 151.79c-.23-.04-.56 0-.87-.14-1.04-.46-1.41-1.73-1.19-3.83.17-1.56.58-2.85 1.1-3.99 1.69-3.65 3.72-6.4 5.83-8.97.64-.78 1.36-.98 2-.04.68 1 .86 2.45.73 4.11-.44 5.66-4.65 12.88-7.6 12.86M531.61 128.1c.71 2.05.78 5.3.22 7.06-.16.52-.38.76-.67.7-.33-.08-.46-.62-.49-1.14-.07-2.39-.04-4.75.93-6.62z" class="cls-5"/><path d="M486.6 147.32c-2.96-.18-5.66-1.83-8.08-5.06-2.1-2.79-4.1-5.9-6.16-8.81-1.7-2.39-3.39-4.88-5.46-5.88-.27-.12-.52-.3-.79-.38-2.12-.7-3.17.42-3.04 5.14.03.96.16 2.13-.39 2.67-.56.54-1.06-.14-1.51-.78-1.56-2.21-2.6-5.32-3.6-8.51-.85-2.73-1.83-5.22-3.12-7.18-.61-.94-1.25-1.79-2-2.23-1.44-.84-2.54.56-2.69 3.53-.12 2.35.19 4.61.52 6.84.6 4.15 1.6 7.96 2.57 11.8q1.635 6.495 3.24 13.02c.66 2.69 1.1 5.54 1.4 8.45.19 1.73.24 3.49-.14 5.2-.73 3.31-2.32 4.21-3.77 2.07-.9-1.34-1.51-3.21-2.06-5.1s-1.08-3.87-1.44-5.94c-1.21-6.96-3.04-13.18-5.1-19.2-1.84-5.36-3.49-10.97-4.71-17.03a64.2 64.2 0 0 1-1.15-16.83c.17-2.71.77-5.08 1.6-7.16 1.53-3.85 3.56-4.98 5.89-3.63 2.33 1.36 4.51 3.35 6.56 5.94 5.39 6.82 10.55 14.34 15.27 22.89 2.84 5.16 6.01 9.21 9.21 13.16 2.91 3.59 6.17 5.62 9.61 6.06.82.1 1.64.04 2.45.48.46.24 1.02.14 1.1 1.52.07 1.16 0 2.21-.5 2.97-.57.88-1.19 1.6-1.92 1.73-.6.1-1.2.14-1.76.22l-.03.02ZM499.67 122.86c.04 2.27-.14 5.18-.96 7.8-.39 1.22-.85 2.31-1.44 3.11-1.01 1.4-1.83 1-2.41-1.14-.37-1.38-.51-2.87-.53-4.45-.05-4.67.41-9.19.9-13.7.2-1.79.61-3.35 1.67-3.53.88-.16 1.62.94 2.1 3.07.57 2.57.63 5.32.66 8.83ZM458.93 178.25c.11 0 .23 0 .32.06 1.08.94 1.66 2.75 2.04 4.88.1.6-.03 1.06-.28 1.4-.21.28-.42.18-.6-.1-.91-1.36-1.51-3.13-1.8-5.34-.06-.44.04-.86.33-.92v.02ZM520.24 181c.87 2.43.88 4.9.96 7.28.16 4.61-.35 8.99-1.31 13.16-1.09 4.79-3.09 7.84-5.4 9.65-2.45 1.91-5.45.2-7.35-4.55-.6-1.54-.79-3.37-.46-5.3.35-2.07 1.2-3.19 2.28-2.93.33.08.64.26.95.48 2.32 1.75 4.15.24 5.7-3.33 1.09-2.49 1.94-5.3 2.74-8.21.55-1.99 1-4.15 1.89-6.22v-.02ZM519.9 164.55c.13-4.11.52-7.52 1.2-10.81.12-.58.28-1.34.66-1.28.39.04.49.78.56 1.42.63 4.69.19 9.15-.61 13.58-.21 1.16-.66 1.48-1.18 1.3-.45-.14-.53-.98-.56-1.77-.04-1-.06-1.97-.07-2.41v-.02Z" class="cls-5"/></g><g style="clip-path:url(#clippath-1)"><path d="M868.47 33.36c.5-.46.97-1.02 1.44-1.6 6.23-7.7 11.77-17.01 16.85-27.36.61-1.24 1.23-2.47 1.85-3.69h-67.85c-.22.96-.44 1.89-.7 2.81-2.2 7.68-2.87 15.87-2.47 24.51.17 3.63.36 7.26 1.26 10.57 3 11.07 7.94 16.27 14.18 17.09 3.09.4 6.17-.68 9.16-2.23 9.15-4.77 17.78-12.1 26.29-20.08v-.02ZM953.11.02c-2.67 4.19-5.31 8.45-8.31 11.68-2.94 3.17-6.03 5.38-9.46 5.04-2.82-.28-5.55-4.66-6.23-10.09-.28-2.23-.32-4.44-.18-6.64h-16.94c-.31.76-.62 1.51-.92 2.29-2.24 5.94-4.33 12.1-6.54 18.1-2.51 6.8-4.65 14.06-6.63 21.49-1.77 6.62-2.46 13.76-2.14 21.19.28 6.38 1.92 11.05 4.89 13.72 1.83 1.64 3.77 2.65 5.77 2.67 4.72.06 9.39-1.02 13.72-4.96 5.38-4.9 10.44-10.97 15.04-18.34 9.45-15.17 17.86-32.48 25.85-50.58.83-1.86 1.64-3.71 2.44-5.58h-10.38ZM1043.64.02c.15 1.18.4 2.33.78 3.49.82 2.47 1.57 5.04 2.25 7.66 1.37 5.24 2.06 10.83 1.91 16.77-.16 6.46-1.96 9.47-5.19 8.87-2.11-.38-4.08-1.87-6.15-2.53-2.68-.86-4.36.94-5.37 5.9-1.18 5.78-1.59 11.9-1.4 18.02.28 8.73.91 17.47 2.1 25.88 2.21 15.55 3.29 31.46 4.38 47.39.98 14.32 2.08 28.57 3.22 42.83.7 8.65 1.38 17.31 1.01 26.12-.27 6.54-.5 13.1-.96 19.6h5.3c.62-1.4.42-3.13.42-4.73 0-2.89.19-5.68.88-8.27 1.38-5.2 3.73-6.52 6.24-3.35 1.81 2.27 3.17 5.34 4.05 9.31.55 2.45.84 5.24 2 7.06h8.28c.11-1.1 0-2.17-.13-3.25-1.52-13.06-3.69-25.66-6.62-37.74-2.94-12.16-6.5-23.65-10.4-34.67-3.6-10.17-6.44-21.17-8.83-32.62-.55-2.63-1-5.32-1.23-8.15-.65-7.96-.57-15.97-.34-23.93.52-18.2 8.32-26.64 15.29-24.98 3.57.84 6.86 3.17 9.94 6.74 2 2.31 3.98 4.71 5.98 7.02 1.83 2.13 3.78 3.59 5.9 4.03 3.74.78 6.7-4.61 6.66-12.06-.03-4.92-.81-9.45-1.86-13.84-1.48-6.2-3.63-11.48-5.74-16.83-4.15-10.59-8.82-20.26-13.58-29.73h-18.78ZM772.29 187.86v-13.12c2.17.42 3.69 3.19 5.26 5.68 1.08 1.71 1.97 3.85 2.97 5.74 1.3 2.43 2.65 2.87 3.54 1.22 1-1.85 1.02-4.75-.22-7.34-2.78-5.8-5.59-11.58-8.64-16.83-1.52-2.61-2.64-5.46-2.91-9.47v-11.8c1.04.16 1.38 1.99 1.93 3.25 2.02 4.69 3.68 9.87 5.59 14.71 1.55 3.95 3.58 6.84 5.42 10.15 1.15 2.07 2.31 4.11 3.3 6.48 5.41 12.72 12.2 21.19 20.34 25.48 4.08 2.15 8.16.9 12.23-.28 7.98-2.29 14.64-9.67 20.54-20.32 4.56-8.23 9.75-14.75 15.21-20.6 4.12-4.41 11.74-.94 14.06 9.11 1.22 5.26 2.52 10.47 3.67 15.81 2.39 11.11 5.21 21.75 9.31 30.9.4.9 1.08 1.79.59 3.37h-11.02c-.75-1.26-1.03-3.05-1.42-4.75-1.15-4.98-2.6-9.57-4.4-13.78-3.96-9.27-11.73-10.01-16.43-5.64-3.15 2.93-5.85 7.04-8.37 11.68-2.27 4.15-4.15 9.09-6.78 12.5h-54.43c-.94-.8-1.41-2.31-1.77-4.11-.91-4.55-1.79-9.13-2.61-13.76-.89-4.96-2.01-9.69-4.37-12.76-.28-.36-.41-1.02-.61-1.54v-.02ZM777.3.02h-5.01v8.29c1.28 2.53 3.02 3.23 4.63 4.43 3.19 2.35 6.48 4.23 9.59 6.98 3.56 3.15 5.93 8.19 6.37 16.03.33 5.88.3 11.82.05 17.71-.22 5.18-2.62 7.56-5.07 5.44-1.67-1.44-2.77-3.99-3.6-7.08-1.78-6.6-3.77-12.94-6.01-18.96-1.54-4.13-3.3-7.88-5.96-9.43v24.3c.6 2.43 1.66 4.05 2.64 5.84 3.11 5.64 6.3 11.19 8.85 17.88 4.11 10.79 8.09 21.73 13.22 30.9 3.31 5.92 6.96 10.27 11.39 11.84 3.63 1.3 7.29 2.23 11.01 2.13 3.47-.1 6.6-2.23 9.52-5.6 1.38-1.6 2.48-3.77 3.03-6.8.63-3.41.17-5.74-1.49-7.34-1.37-1.3-2.84-1.93-4.34-2.43-2.55-.84-5.13-.66-7.69-1.32-3.89-.98-7.81-1.63-11.45-4.79-5.6-4.85-9.36-12.76-10.82-24.68-1.05-8.51-.32-16.45 1.5-24.24 1.19-5.06 2.42-10.09 2.83-15.73.43-5.78-.53-9.53-3.28-11.86-1.61-1.36-3.31-1.89-5.06-2.19-2.57-.42-5.14.1-7.71.02-3.53-.1-6.1-3.45-7.16-9.37v.02ZM1030.29 220.02H1023c-.28-1.32.14-2.33.39-3.39 1.33-5.6 2.17-11.5 2.7-17.59.21-2.39.29-4.82-.18-7.14-.69-3.43-1.99-4.13-3.36-1.65-1.73 3.11-3.02 6.96-4.37 10.71-1.87 5.18-3.16 11.07-5.14 16.11-.41 1.04-.8 2.09-1.31 2.95h-19.55c-1.49-3.67-3.13-7.06-4.69-10.61-1.63-3.69-1.68-7.98-.62-12.32.73-2.99 1.73-3.69 3.05-1.6 3.47 5.5 7.6 7.96 11.76 10.15 4.74 2.49 8.95.12 12.61-6.24 3.34-5.8 5.08-13.68 6.93-21.43 2.77-11.64 3.32-24.26 4.31-36.73.9-11.38.81-22.73.07-34.09-.26-3.99.16-7.88.36-11.8.07-1.28.41-2.35 1.1-2.57.62-.2 1.01.72 1.35 1.6.43 1.06.57 2.35.73 3.63.77 5.96 1.08 12.08 1.47 18.18.46 7.06 1.74 13.9 1.92 21.03.3 11.27 1.51 22.35 1.6 33.68.03 4.35.16 8.77.5 13.1.2 2.57-.04 5.02-.22 7.52-.61 8.47-1.31 16.93-2.95 24.92-.28 1.34-.56 2.63-1.15 3.55v.04ZM1128.91 220.02h-9.61c-.62-1.02-.9-2.47-1.25-3.83-2.65-10.23-5.73-19.94-9.32-28.97-1.78-4.47-3.87-8.39-6.18-11.82-2.65-3.93-5.33-7.84-7.7-12.4-2.37-4.55-4.66-9.29-6.7-14.48-.2-.52-.38-1.08-.52-1.67-.37-1.5-.76-3.05-.14-4.61.55-1.4 1.39-1.28 2.15-1 1.89.68 3.6 2.11 4.98 4.81 3 5.86 6.46 10.53 9.85 15.43 6.32 9.09 13.11 16.53 19.92 23.95 1.65 1.79 3.18 3.93 4.66 6.22 1.07 1.65 1.63 3.75 1.61 6.5-.02 2.41.01 4.83-.35 7.16-.75 4.81-.7 9.89-1.41 14.69v.02Z" class="cls-5"/><path d="M1090.92 220.02h-12.6c-1.87-2.29-2.17-6.24-1.63-9.53 1.5-9.21-1.05-15.91-3.3-22.57-2.39-7.06-5.13-13.64-7.59-20.62-.41-1.16-.83-2.31-1.22-3.51-.57-1.77-.82-3.63-.25-5.54.61-2.03 1.65-2.01 2.65-1.77 1.33.32 2.55 1.32 3.72 2.57 4.13 4.33 6.94 11.19 9.6 18.54 2.78 7.68 4.21 16.51 5.9 25.1.97 4.94 2.13 9.55 3.8 13.68.42 1.04 1.07 1.99.89 3.67v-.02ZM983.24 220.02h-8.28c-.26-.64-.33-1.38-.28-2.15.59-10.41-.47-20.6-1.01-30.86-.32-6.08-.31-12.16 0-18.24.11-2.17.12-4.35.17-6.52.02-1.1.1-2.17.29-3.21.31-1.6.77-2.95 1.68-3.27.9-.32 1.44.94 1.89 2.17.96 2.61 1.6 5.58 1.66 8.77.32 17.07 2.35 33.58 4.04 50.2.11 1.08.25 2.13-.15 3.11ZM778.11 120.61c-.63.34-1.1-.2-1.58-.8-1.41-1.71-2.82-3.37-4.24-5.06v-8.61c1.48 4.39 4.05 7.4 5.27 12.12.2.78.64 1.38.55 2.35M842.78 125.77c0-1.24.28-2.71.76-3.93 2.95-7.56 6.71-12.62 11.51-14.3.27-.1.55-.18.82-.1 1.42.46 1.92 2.87 1.07 5.12-1.08 2.85-2.55 4.88-3.84 7.26a54.8 54.8 0 0 1-5.58 8.25c-.76.92-1.56 1.65-2.45 1.93-1.33.44-2.26-1.16-2.27-4.25h-.01ZM1022.88 61.55c.04-3.49.24-6.76.92-9.83.56-2.51 1.16-3.13 2.47-2.83.9.2 1.52 1.5 1.63 3.97.24 5.26-.34 10.27-1.44 15.03-.31 1.34-.81 2.45-1.65 2.33-.82-.12-1.22-1.3-1.53-2.67-.44-1.97-.37-4.09-.41-6zM874.5 100.07c.77-2.09 1.84-3.47 2.94-4.73 1.21-1.36 2.31-3.03 3.35-4.83 2.42-4.13 3.51-9.49 3.64-15.73.04-2.09.07-4.21 0-6.3-.17-4.9 2.52-9.11 4.58-9.91.7-.28 1.01.5 1.11 1.79.13 1.85.3 3.71.44 5.56.47 6.4 2.27 11.68 3.63 17.33.58 2.37 1.11 4.86 2.03 6.82 3.51 7.48 7.8 11.03 12.94 9.65 7.71-2.07 14.61-8.11 20.82-17.39 2.56-3.83 5.11-7.7 7.66-11.56 3.14-4.77 5.85-10.45 8.28-16.59 1.66-4.19 3.56-7.82 5.52-11.38.48-.88 1.11-2.15 1.72-1.3.67.94.38 2.63.02 3.91-1.35 4.83-2.83 9.47-4.66 13.64-1.21 2.75-2.3 5.64-3.21 8.81-1.84 6.32-4.02 12.14-6.51 17.49-.45.98-.92 1.93-1.27 3.05-3.33 10.51-8.09 18.64-11.86 28.43q-.255.66-.57 1.2c-5.07 8.27-10.34 15.87-16.78 19.38-2.82 1.54-5.69 2.61-8.63 2.53-1.11-.02-2.21-.36-3.28-.76-1.77-.66-3.14-2.65-4.04-5.8-.52-1.81-1-3.69-1.43-5.6-1.83-8.25-4.74-14.83-7.96-20.96-1.71-3.25-3.79-4.81-6.1-5.34-.57-.56-1.18-.16-1.77-.28-.34-.06-.67-.12-.6-1.08l-.03-.06ZM982.56.02c1.11.5 1.96 1.65 2.61 3.45.21.58.39 1.18.58 1.75.48 1.53 1.13 2.69 2.21 2.55 1.02-.12 1.9-1.73 2.29-3.73.27-1.38.15-2.73-.01-4.03h-7.68ZM832.44 69.88c.52-1.32 1.22-.86 1.83-.66 1.09.34 2.17.82 3.24 1.32 2.18 1.04 4.3.62 6.27-1.48 2.64-2.79 5.47-4.05 8.4-4.51.8-.12 1.64-.36 2.43.62-.61 1.95-1.47 3.11-2.43 3.97-5.14 4.49-10.43 6.14-15.95 3.21-.69-.36-1.42-.38-2.13-.58-.67-.2-1.3-.52-1.68-1.87v-.02Z" class="cls-5"/><path d="M855.17 109.48c.37.06.68-.06.8.62.1.62-.1 1.08-.29 1.44-1 1.89-2.01 3.77-3.03 5.6-1.69 3.03-3.5 5.72-5.42 8.13-.33.42-.66.82-1.01 1.12-.64.54-1.29 1.56-2 .6-.43-.58-.22-2.71.44-4.53.82-2.23 1.82-4.15 2.91-5.84 1.98-3.07 4.13-5.44 6.58-6.7.37-.18.75-.34 1.03-.46v.02ZM966.45 9.39c.82.04 1.26 1.56.88 2.75a13 13 0 0 1-1.6 3.33c-1.25 1.85-2.52 3.59-3.97 4.73-.3.24-.66.6-.93.08-.34-.68-.1-1.43.11-2.09.23-.74.48-1.5.76-2.15 1.13-2.65 2.53-4.55 4.08-6.1.24-.24.51-.4.67-.54ZM1006.17.02c-1.23.7-2.14 2.41-2.91 4.47-.86 2.29-1.42 4.9-1.82 7.66-.91 6.3-1.45 12.72-1.63 19.26-.07 2.53-.32 4.98-.83 7.28-.38 1.69-.83 3.53-1.93 3.63-1.19.1-1.68-1.77-2.11-3.59-.14-.6-.22-1.24-.36-1.81-.19-.78-.38-1.58-.63-2.29-.28-.8-.61-1.73-1.19-1.38-.64.4-.96 1.4-.94 2.85-.03.94.2 1.83.37 2.75.19 1.02.49 1.99.6 3.03.77 7.28 2.27 14.08 3.29 21.19.54 3.79 1.43 7.32 2.67 10.45 1.57 3.93 3.41 3.53 4.47-.98.75-3.19 1.12-6.58 1.19-10.11.11-5.48-.39-10.85-.85-16.21-.47-5.5-.73-10.93.09-16.47 1.01-6.82 2.16-13.48 3.94-19.68.52-1.8 1.01-3.67 1.33-5.62.37-2.16.04-3.77-.78-4.43h-1.99ZM877.85 163.31c-2.49.2-4.09-2.75-5.25-8.91-.15-.82-.2-1.73-.24-2.61-.2-4.25.79-6 2.81-5.06 2.77 1.3 4.64 5.3 5.09 10.91.3 3.71-.56 5.72-2.42 5.68ZM860.97 142.3c1.79-1.64 3.26-1.69 4.77-.56.2.16.41.4.44.9.05.72-.26 1-.49 1.1-1.55.68-3.02.34-4.71-1.44ZM1160.01 9.45v15.59c-3.41-1.12-6.83-2.17-10.24-3.27-.49-.16-.98-.4-1.44-.78-1.39-1.12-1.65-3.59-.57-5.76.79-1.58 1.77-2.63 2.81-3.39 2.52-1.8 5.09-2.91 7.8-2.69l1.65.3zM1112.78.02c1.32 2.79 3.1 5.1 4.61 5.46.82.2 1.53-.12 2.04-1.28.5-1.14.34-2.29-.04-3.37-.1-.28-.21-.54-.31-.82h-6.3ZM1160.01 68.77v26.1a93 93 0 0 0-3.36-6.46c-.97-1.67-1.83-3.53-2.61-5.52-.38-.94-.73-1.95-1.02-3.01-1.51-5.64-.33-10.41 2.83-11.46.59-.2 1.21-.18 1.81-.26.83-.08 1.61.18 2.36.62ZM1158.48 176.33c.03 5.48-1.83 8.89-4.74 10.73-.97.62-1.95.66-2.9-.2-.67-.6-.98-1.56-.9-3.13.31-6.38 2.63-11.33 5.78-12.18 1.72-.46 2.77 1.34 2.76 4.77v.02ZM1147.95 210.05c-.95-3.43-.91-6.52-.24-9.61.18-.84.57-1.04.85-.02.13.48.25 1.02.27 1.54.1 2.71-.06 5.32-.88 8.11zM1131.67 184.15c-1.51-1.61-2.28-4.33-3.04-6.96-.81-2.79-1.81-5.26-2.89-7.64-2-4.35-4.56-6.02-7.41-6.3-1.16-.12-2.33-.14-3.47 0-1.99.24-4.38-5.68-4.52-8.95-.07-1.5.23-2.25.98-2.45.98-.26 1.96-.62 2.93-.98 3.43-1.3 6.3-5.14 9.36-8.17 2.43-2.41 4.1-6.14 5.48-10.69 1.94-6.42 2.26-13.42 1.64-20.5-1.23-13.88-3.91-26.64-8.08-38.06-1.96-5.34-3.96-10.63-5.97-15.89-2.69-7.08-5.9-13.12-9.36-18.64-1.79-2.85-3.29-6.22-4.82-9.55-.47-1.04-1.18-2.43-.64-3.73.56-1.34 1.46-.54 2.13.28 2.12 2.61 4.25 5.16 6.14 8.43 1.3 2.23 2.59 4.47 4.08 6.2 3.69 4.29 7.07 9.41 10.19 15.23.24.46.48.94.76 1.28 4.46 5.48 7.93 13.32 11.93 19.9 5.38 8.87 9 20.22 11.64 32.92 1.76 8.47 2.4 17.41 2.08 26.6-.2 5.56-1.48 9.57-4.02 11.96-2.65 2.49-5.3 5-7.56 8.83-1.43 2.43-2.83 4.92-4.18 7.54-2.73 5.24-3.62 11.8-3.33 19.38l-.02-.04ZM987.67 114.51c.16-2.07-.2-4.43-.47-6.8-.77-6.88-1.23-13.92-2.92-20.28-.95-3.53-1.94-6.94-3.27-9.93-.44-.98-.88-1.97-1.29-3.03-.34-.86-.74-1.79-.39-2.99s.91-1.46 1.57-1.32c.86.16 1.58.92 2.22 1.99 2.48 4.11 3.93 9.49 4.76 15.57s1.08 12.38 1.65 18.56c.37 3.93.87 7.76 2.03 11.11 1.33 3.83 2.35 4.11 3.99.92.16-.3.29-.68.46-.96.62-1.02 1.13-.84 1.39.7.36 2.11.48 4.33.29 6.54-.21 2.61-.47 5.2-.71 7.82-.31 3.41-.35 6.8.12 10.17.12.84.27 1.69.51 2.43.74 2.31 1.89 2.73 2.96 1.02.97-1.54 1.61-3.63 2.18-5.78 1.03-3.93 1.73-8.11 2.37-12.36.76-5.08 1.59-10.11 2.55-15.05a52 52 0 0 1 1.81-6.7c.35-1.02.76-1.89 1.29-2.53 1.88-2.29 3.76-.44 3.95 3.93.1 2.45-.19 4.85-.51 7.18-.19 1.38-.4 2.77-.72 4.05-1.99 8.02-2.89 16.65-3.72 25.32-.47 4.88-1.2 9.63-2.08 14.3-.91 4.86-2.38 8.93-4.16 12.62-1.25 2.55-2.74 4.05-4.47 4.67-2.39.86-4.52-1.08-5.74-5.36a83.6 83.6 0 0 1-2.7-13.84c-1.45-12.96-2.32-26.08-2.94-39.28-.04-.76 0-1.54 0-2.71v.04ZM970.94 68.25c.23.04.56 0 .88.14 1.05.46 1.43 1.73 1.2 3.83-.17 1.56-.59 2.85-1.11 3.99-1.71 3.65-3.75 6.4-5.88 8.97-.65.78-1.37.98-2.02.04-.69-1-.87-2.45-.74-4.11.44-5.66 4.69-12.88 7.66-12.86ZM1014.95 91.94c-.72-2.05-.79-5.3-.22-7.06.16-.52.38-.76.68-.7.33.08.47.62.49 1.14.07 2.39.04 4.75-.94 6.62Z" class="cls-5"/><path d="M1060.33 72.71c2.98.18 5.71 1.83 8.14 5.06 2.12 2.79 4.13 5.9 6.21 8.81 1.72 2.39 3.41 4.88 5.51 5.88.27.12.53.3.8.38 2.14.7 3.19-.42 3.06-5.14-.03-.96-.16-2.13.39-2.67.57-.54 1.07.14 1.53.78 1.58 2.21 2.63 5.32 3.63 8.51.86 2.73 1.85 5.22 3.14 7.18.62.94 1.26 1.79 2.02 2.23 1.45.84 2.56-.56 2.71-3.53.12-2.35-.19-4.61-.52-6.84-.61-4.15-1.62-7.96-2.6-11.8-1.1-4.33-2.18-8.67-3.26-13.02-.67-2.69-1.11-5.54-1.42-8.45-.19-1.73-.24-3.49.14-5.2.74-3.31 2.34-4.21 3.8-2.07.91 1.34 1.52 3.21 2.08 5.1s1.09 3.87 1.45 5.94c1.22 6.96 3.06 13.18 5.14 19.2 1.86 5.36 3.51 10.97 4.75 17.03a63.4 63.4 0 0 1 1.16 16.83c-.17 2.71-.78 5.08-1.62 7.16-1.55 3.85-3.59 4.98-5.94 3.63-2.35-1.36-4.55-3.35-6.62-5.94-5.43-6.82-10.64-14.34-15.4-22.89-2.86-5.16-6.06-9.21-9.28-13.16-2.93-3.59-6.22-5.62-9.69-6.06-.83-.1-1.66-.04-2.47-.48-.47-.24-1.03-.14-1.11-1.52-.07-1.16 0-2.21.51-2.97.58-.88 1.2-1.6 1.94-1.73.61-.1 1.21-.14 1.78-.22l.03-.02ZM1047.15 97.18c-.04-2.27.14-5.18.97-7.8.39-1.22.86-2.31 1.45-3.11 1.02-1.4 1.85-1 2.43 1.14.37 1.38.52 2.87.54 4.45.05 4.67-.41 9.19-.91 13.7-.2 1.79-.62 3.35-1.69 3.53-.89.16-1.64-.94-2.12-3.07-.58-2.57-.64-5.32-.67-8.83ZM1088.23 41.79c-.11 0-.23 0-.32-.06-1.09-.94-1.68-2.75-2.06-4.88-.1-.6.03-1.06.28-1.4.21-.28.42-.18.61.1.92 1.36 1.53 3.13 1.82 5.34.06.44-.04.86-.33.92zM1026.42 39.04c-.88-2.43-.89-4.9-.97-7.28-.16-4.61.35-8.99 1.32-13.16 1.1-4.79 3.11-7.84 5.44-9.65 2.46-1.91 5.5-.2 7.41 4.55.61 1.54.8 3.37.47 5.3-.35 2.07-1.21 3.19-2.3 2.93-.33-.08-.65-.26-.96-.48-2.34-1.75-4.18-.24-5.75 3.33-1.1 2.49-1.96 5.3-2.77 8.21-.56 1.99-1.01 4.15-1.91 6.22v.02ZM1026.76 55.49c-.13 4.11-.53 7.52-1.21 10.81-.12.58-.28 1.34-.67 1.28-.39-.04-.49-.78-.57-1.42-.64-4.69-.19-9.15.62-13.58.21-1.16.67-1.48 1.19-1.3.45.14.54.98.57 1.77.04 1 .06 1.97.07 2.41v.02Z" class="cls-5"/></g><g style="clip-path:url(#clippath-2)"><path d="M96.19 33.36c.5-.46.97-1.02 1.44-1.6 6.23-7.7 11.77-17.01 16.85-27.36.61-1.24 1.23-2.47 1.85-3.69H48.47c-.22.96-.44 1.89-.7 2.81-2.2 7.68-2.87 15.87-2.47 24.51.17 3.63.36 7.26 1.26 10.57 3 11.07 7.94 16.27 14.18 17.09 3.09.4 6.17-.68 9.16-2.23 9.15-4.77 17.79-12.1 26.29-20.08zM180.82.02c-2.67 4.19-5.31 8.45-8.31 11.68-2.94 3.17-6.03 5.38-9.46 5.04-2.82-.28-5.55-4.66-6.23-10.09-.28-2.23-.32-4.44-.18-6.64H139.7c-.31.76-.62 1.51-.92 2.29-2.24 5.94-4.33 12.1-6.54 18.1-2.5 6.8-4.65 14.06-6.63 21.49-1.77 6.62-2.47 13.76-2.14 21.19.28 6.38 1.92 11.05 4.89 13.72 1.83 1.64 3.77 2.65 5.77 2.67 4.72.06 9.39-1.02 13.72-4.96 5.38-4.9 10.44-10.97 15.04-18.34 9.45-15.17 17.86-32.48 25.85-50.58.83-1.86 1.64-3.71 2.44-5.58H180.8ZM271.36.02c.15 1.18.4 2.33.78 3.49.82 2.47 1.57 5.04 2.25 7.66 1.37 5.24 2.06 10.83 1.91 16.77-.16 6.46-1.96 9.47-5.19 8.87-2.11-.38-4.08-1.87-6.15-2.53-2.67-.86-4.36.94-5.37 5.9-1.18 5.78-1.59 11.9-1.4 18.02.28 8.73.91 17.47 2.1 25.88 2.21 15.55 3.29 31.46 4.38 47.39.98 14.32 2.08 28.57 3.23 42.83.7 8.65 1.38 17.31 1.01 26.12-.27 6.54-.5 13.1-.96 19.6h5.3c.62-1.4.42-3.13.42-4.73 0-2.89.19-5.68.88-8.27 1.38-5.2 3.73-6.52 6.24-3.35 1.81 2.27 3.17 5.34 4.05 9.31.55 2.45.84 5.24 2 7.06h8.28c.11-1.1 0-2.17-.13-3.25-1.52-13.06-3.69-25.66-6.62-37.74-2.94-12.16-6.5-23.65-10.4-34.67-3.6-10.17-6.44-21.17-8.83-32.62-.55-2.63-1-5.32-1.23-8.15-.65-7.96-.57-15.97-.34-23.93.52-18.2 8.32-26.64 15.29-24.98 3.57.84 6.86 3.17 9.94 6.74 2 2.31 3.98 4.71 5.98 7.02 1.83 2.13 3.78 3.59 5.9 4.03 3.74.78 6.7-4.61 6.66-12.06-.03-4.92-.81-9.45-1.86-13.84-1.48-6.2-3.63-11.48-5.74-16.83-4.15-10.59-8.82-20.26-13.58-29.73h-18.78ZM0 187.86v-13.12c2.17.42 3.69 3.19 5.26 5.68 1.08 1.71 1.97 3.85 2.97 5.74 1.3 2.43 2.65 2.87 3.54 1.22 1-1.85 1.02-4.75-.22-7.34-2.78-5.8-5.59-11.58-8.64-16.83-1.52-2.61-2.64-5.46-2.91-9.47v-11.8c1.04.16 1.38 1.99 1.93 3.25 2.02 4.69 3.68 9.87 5.59 14.71 1.55 3.95 3.58 6.84 5.42 10.15 1.15 2.07 2.31 4.11 3.3 6.48 5.41 12.72 12.2 21.19 20.34 25.48 4.08 2.15 8.16.9 12.23-.28 7.98-2.29 14.64-9.67 20.54-20.32 4.56-8.23 9.75-14.75 15.21-20.6 4.12-4.41 11.74-.94 14.06 9.11 1.22 5.26 2.53 10.47 3.67 15.81 2.4 11.11 5.21 21.75 9.31 30.9.4.9 1.08 1.79.59 3.37h-11.02c-.75-1.26-1.03-3.05-1.42-4.75-1.15-4.98-2.61-9.57-4.4-13.78-3.96-9.27-11.73-10.01-16.43-5.64-3.15 2.93-5.85 7.04-8.37 11.68-2.27 4.15-4.15 9.09-6.78 12.5H9.34c-.94-.8-1.41-2.31-1.77-4.11-.91-4.55-1.79-9.13-2.61-13.76-.89-4.96-2.01-9.69-4.37-12.76-.28-.36-.41-1.02-.61-1.54v-.02ZM5.02.02H.01v8.29c1.28 2.53 3.02 3.23 4.63 4.43 3.19 2.35 6.48 4.23 9.59 6.98 3.56 3.15 5.93 8.19 6.37 16.03.33 5.88.3 11.82.05 17.71-.22 5.18-2.62 7.56-5.07 5.44-1.67-1.44-2.77-3.99-3.6-7.08-1.78-6.6-3.77-12.94-6.01-18.96-1.54-4.13-3.3-7.88-5.96-9.43v24.3c.6 2.43 1.66 4.05 2.64 5.84 3.11 5.64 6.3 11.19 8.85 17.88 4.11 10.79 8.09 21.73 13.22 30.9 3.31 5.92 6.96 10.27 11.39 11.84 3.63 1.3 7.29 2.23 11.01 2.13 3.47-.1 6.6-2.23 9.52-5.6 1.38-1.6 2.48-3.77 3.03-6.8.63-3.41.17-5.74-1.49-7.34-1.37-1.3-2.84-1.93-4.34-2.43-2.55-.84-5.13-.66-7.69-1.32-3.89-.98-7.82-1.63-11.45-4.79-5.6-4.85-9.36-12.76-10.82-24.68-1.05-8.51-.32-16.45 1.5-24.24 1.19-5.06 2.42-10.09 2.83-15.73.43-5.78-.53-9.53-3.28-11.86-1.61-1.36-3.31-1.89-5.06-2.19-2.58-.42-5.14.1-7.71.02C8.63 9.26 6.06 5.91 5-.01v.02ZM258.01 220.02h-7.29c-.28-1.32.14-2.33.39-3.39 1.33-5.6 2.17-11.5 2.7-17.59.21-2.39.29-4.82-.18-7.14-.69-3.43-1.99-4.13-3.36-1.65-1.73 3.11-3.02 6.96-4.37 10.71-1.87 5.18-3.16 11.07-5.14 16.11-.41 1.04-.8 2.09-1.31 2.95H219.9c-1.49-3.67-3.13-7.06-4.69-10.61-1.63-3.69-1.68-7.98-.62-12.32.73-2.99 1.73-3.69 3.05-1.6 3.47 5.5 7.6 7.96 11.76 10.15 4.74 2.49 8.95.12 12.61-6.24 3.34-5.8 5.08-13.68 6.93-21.43 2.76-11.64 3.32-24.26 4.31-36.73.9-11.38.81-22.73.07-34.09-.26-3.99.16-7.88.36-11.8.07-1.28.41-2.35 1.1-2.57.62-.2 1.01.72 1.35 1.6.43 1.06.57 2.35.73 3.63.77 5.96 1.08 12.08 1.47 18.18.46 7.06 1.74 13.9 1.92 21.03.3 11.27 1.51 22.35 1.6 33.68.03 4.35.16 8.77.5 13.1.2 2.57-.04 5.02-.22 7.52-.61 8.47-1.31 16.93-2.95 24.92-.28 1.34-.56 2.63-1.15 3.55v.04ZM356.63 220.02h-9.61c-.62-1.02-.9-2.47-1.25-3.83-2.65-10.23-5.73-19.94-9.32-28.97-1.78-4.47-3.87-8.39-6.18-11.82-2.65-3.93-5.33-7.84-7.71-12.4-2.37-4.55-4.66-9.29-6.7-14.48-.2-.52-.38-1.08-.52-1.67-.37-1.5-.76-3.05-.14-4.61.55-1.4 1.39-1.28 2.14-1 1.89.68 3.6 2.11 4.98 4.81 3 5.86 6.46 10.53 9.85 15.43 6.32 9.09 13.11 16.53 19.92 23.95 1.65 1.79 3.18 3.93 4.66 6.22 1.07 1.65 1.63 3.75 1.61 6.5-.02 2.41 0 4.83-.35 7.16-.75 4.81-.7 9.89-1.41 14.69v.02ZM181.13 220.02h-9.28c-.93-4.21-.41-8.59-.36-12.9.07-6.74 1.43-12.04 4.66-15.03.78-.72 1.33-2.01 1.64-3.57 1.14-5.68 2.3-11.28 2.61-17.53.44-8.81 1.29-17.51 2.11-26.22.21-2.23.77-4.23 2.03-4.69 1.29-.48 2.05 1.22 2.65 3.15 1.58 4.94 2.26 10.49 2.34 16.21.15 11.29-.91 22.09-3.2 32.52-1.82 8.25-4.26 16.17-4.47 25.56-.02 1.04-.33 1.83-.71 2.51v-.02Z" class="cls-5"/><path d="M318.64 220.02h-12.6c-1.87-2.29-2.17-6.24-1.63-9.53 1.5-9.21-1.05-15.91-3.3-22.57-2.39-7.06-5.13-13.64-7.59-20.62-.41-1.16-.83-2.31-1.22-3.51-.57-1.77-.82-3.63-.25-5.54.61-2.03 1.65-2.01 2.65-1.77 1.33.32 2.55 1.32 3.72 2.57 4.13 4.33 6.94 11.19 9.6 18.54 2.78 7.68 4.21 16.51 5.9 25.1.97 4.94 2.13 9.55 3.8 13.68.42 1.04 1.07 1.99.89 3.67v-.02ZM210.96 220.02h-8.28c-.26-.64-.33-1.38-.28-2.15.59-10.41-.47-20.6-1.01-30.86-.32-6.08-.31-12.16 0-18.24.11-2.17.12-4.35.17-6.52.02-1.1.1-2.17.29-3.21.31-1.6.77-2.95 1.68-3.27.9-.32 1.44.94 1.89 2.17.96 2.61 1.6 5.58 1.66 8.77.32 17.07 2.35 33.58 4.04 50.2.11 1.08.25 2.13-.15 3.11ZM5.83 120.61c-.63.34-1.1-.2-1.58-.8-1.41-1.71-2.82-3.37-4.24-5.06v-8.61c1.48 4.39 4.05 7.4 5.27 12.12.2.78.64 1.38.55 2.35M70.5 125.77c0-1.24.28-2.71.76-3.93 2.95-7.56 6.71-12.62 11.51-14.3.27-.1.55-.18.82-.1 1.42.46 1.92 2.87 1.07 5.12-1.08 2.85-2.55 4.88-3.84 7.26a54.8 54.8 0 0 1-5.58 8.25c-.76.92-1.56 1.65-2.45 1.93-1.33.44-2.26-1.16-2.28-4.25h-.01ZM250.6 61.55c.04-3.49.24-6.76.92-9.83.56-2.51 1.16-3.13 2.46-2.83.9.2 1.52 1.5 1.63 3.97.24 5.26-.34 10.27-1.44 15.03-.31 1.34-.81 2.45-1.65 2.33-.82-.12-1.22-1.3-1.53-2.67-.44-1.97-.37-4.09-.41-6ZM102.21 100.07c.77-2.09 1.84-3.47 2.94-4.73 1.21-1.36 2.31-3.03 3.35-4.83 2.42-4.13 3.51-9.49 3.64-15.73.04-2.09.07-4.21 0-6.3-.17-4.9 2.52-9.11 4.58-9.91.7-.28 1.01.5 1.11 1.79.13 1.85.3 3.71.44 5.56.47 6.4 2.27 11.68 3.63 17.33.58 2.37 1.11 4.86 2.03 6.82 3.51 7.48 7.79 11.03 12.94 9.65 7.7-2.07 14.61-8.11 20.82-17.39 2.56-3.83 5.11-7.7 7.67-11.56 3.14-4.77 5.85-10.45 8.28-16.59 1.66-4.19 3.56-7.82 5.52-11.38.48-.88 1.11-2.15 1.72-1.3.67.94.38 2.63.02 3.91-1.35 4.83-2.83 9.47-4.66 13.64-1.21 2.75-2.3 5.64-3.21 8.81-1.84 6.32-4.02 12.14-6.51 17.49-.45.98-.92 1.93-1.27 3.05-3.33 10.51-8.1 18.64-11.86 28.43q-.255.66-.57 1.2c-5.07 8.27-10.34 15.87-16.78 19.38-2.82 1.54-5.69 2.61-8.63 2.53-1.11-.02-2.21-.36-3.28-.76-1.77-.66-3.14-2.65-4.04-5.8-.52-1.81-1-3.69-1.43-5.6-1.83-8.25-4.74-14.83-7.95-20.96-1.71-3.25-3.79-4.81-6.1-5.34-.57-.56-1.18-.16-1.77-.28-.34-.06-.67-.12-.6-1.08l-.03-.06ZM210.28.02c1.11.5 1.96 1.65 2.61 3.45.21.58.39 1.18.58 1.75.48 1.53 1.13 2.69 2.21 2.55 1.02-.12 1.9-1.73 2.29-3.73.27-1.38.15-2.73-.01-4.03h-7.67ZM60.16 69.88c.52-1.32 1.22-.86 1.83-.66 1.09.34 2.17.82 3.24 1.32 2.19 1.04 4.3.62 6.27-1.48 2.63-2.79 5.47-4.05 8.4-4.51.8-.12 1.64-.36 2.44.62-.61 1.95-1.47 3.11-2.43 3.97-5.14 4.49-10.43 6.14-15.95 3.21-.69-.36-1.42-.38-2.13-.58-.67-.2-1.3-.52-1.68-1.87v-.02Z" class="cls-5"/><path d="M82.89 109.48c.37.06.68-.06.8.62.1.62-.1 1.08-.29 1.44-1 1.89-2.01 3.77-3.03 5.6-1.69 3.03-3.5 5.72-5.42 8.13-.33.42-.66.82-1.01 1.12-.64.54-1.29 1.56-2 .6-.43-.58-.22-2.71.44-4.53.82-2.23 1.82-4.15 2.91-5.84 1.98-3.07 4.13-5.44 6.58-6.7.37-.18.75-.34 1.03-.46v.02ZM194.17 9.39c.82.04 1.26 1.56.88 2.75a13 13 0 0 1-1.6 3.33c-1.25 1.85-2.51 3.59-3.97 4.73-.3.24-.66.6-.93.08-.34-.68-.1-1.43.11-2.09.23-.74.48-1.5.76-2.15 1.13-2.65 2.53-4.55 4.08-6.1.24-.24.51-.4.67-.54ZM233.89.02c-1.23.7-2.15 2.41-2.91 4.47-.86 2.29-1.42 4.9-1.82 7.66-.91 6.3-1.45 12.72-1.63 19.26-.07 2.53-.32 4.98-.83 7.28-.38 1.69-.83 3.53-1.93 3.63-1.19.1-1.68-1.77-2.11-3.59-.14-.6-.22-1.24-.36-1.81-.19-.78-.38-1.58-.63-2.29-.28-.8-.61-1.73-1.19-1.38-.64.4-.96 1.4-.94 2.85-.03.94.2 1.83.37 2.75.19 1.02.49 1.99.6 3.03.77 7.28 2.28 14.08 3.29 21.19.54 3.79 1.43 7.32 2.67 10.45 1.57 3.93 3.41 3.53 4.47-.98.75-3.19 1.12-6.58 1.19-10.11.11-5.48-.39-10.85-.85-16.21-.47-5.5-.73-10.93.09-16.47 1.01-6.82 2.16-13.48 3.94-19.68.52-1.8 1.01-3.67 1.33-5.62.37-2.16.04-3.77-.78-4.43h-1.99ZM105.57 163.31c-2.49.2-4.09-2.75-5.25-8.91-.15-.82-.2-1.73-.24-2.61-.2-4.25.79-6 2.81-5.06 2.76 1.3 4.64 5.3 5.09 10.91.3 3.71-.56 5.72-2.42 5.68ZM88.69 142.3c1.79-1.64 3.26-1.69 4.77-.56.2.16.41.4.44.9.05.72-.26 1-.49 1.1-1.55.68-3.02.34-4.71-1.44zM387.73 9.45v15.59c-3.41-1.12-6.83-2.17-10.24-3.27-.49-.16-.98-.4-1.44-.78-1.39-1.12-1.65-3.59-.57-5.76.79-1.58 1.77-2.63 2.81-3.39 2.52-1.8 5.09-2.91 7.8-2.69l1.65.3zM340.5.02c1.32 2.79 3.1 5.1 4.61 5.46.82.2 1.53-.12 2.04-1.28.5-1.14.34-2.29-.04-3.37-.1-.28-.21-.54-.31-.82h-6.3ZM387.73 68.77v26.1a93 93 0 0 0-3.36-6.46c-.97-1.67-1.83-3.53-2.61-5.52-.38-.94-.73-1.95-1.02-3.01-1.51-5.64-.33-10.41 2.83-11.46.59-.2 1.21-.18 1.81-.26.83-.08 1.61.18 2.36.62ZM386.2 176.33c.03 5.48-1.83 8.89-4.74 10.73-.97.62-1.95.66-2.89-.2-.67-.6-.98-1.56-.9-3.13.31-6.38 2.64-11.33 5.78-12.18 1.72-.46 2.76 1.34 2.75 4.77v.02ZM375.67 210.05c-.95-3.43-.91-6.52-.24-9.61.18-.84.57-1.04.85-.02.13.48.25 1.02.27 1.54.1 2.71-.06 5.32-.88 8.11zM359.39 184.15c-1.51-1.61-2.27-4.33-3.04-6.96-.81-2.79-1.81-5.26-2.89-7.64-2-4.35-4.56-6.02-7.41-6.3-1.16-.12-2.33-.14-3.47 0-1.99.24-4.38-5.68-4.52-8.95-.07-1.5.23-2.25.98-2.45.98-.26 1.96-.62 2.93-.98 3.43-1.3 6.3-5.14 9.36-8.17 2.42-2.41 4.1-6.14 5.48-10.69 1.94-6.42 2.26-13.42 1.64-20.5-1.23-13.88-3.91-26.64-8.08-38.06-1.96-5.34-3.96-10.63-5.97-15.89-2.7-7.08-5.9-13.12-9.36-18.64-1.79-2.85-3.29-6.22-4.82-9.55-.47-1.04-1.18-2.43-.64-3.73.56-1.34 1.46-.54 2.13.28 2.12 2.61 4.25 5.16 6.14 8.43 1.3 2.23 2.6 4.47 4.08 6.2 3.69 4.29 7.07 9.41 10.19 15.23.24.46.48.94.76 1.28 4.46 5.48 7.94 13.32 11.93 19.9 5.38 8.87 9 20.22 11.64 32.92 1.76 8.47 2.39 17.41 2.08 26.6-.2 5.56-1.48 9.57-4.02 11.96-2.64 2.49-5.3 5-7.56 8.83-1.43 2.43-2.83 4.92-4.18 7.54-2.72 5.24-3.62 11.8-3.33 19.38l-.02-.04ZM215.39 114.51c.16-2.07-.2-4.43-.47-6.8-.77-6.88-1.23-13.92-2.93-20.28-.95-3.53-1.94-6.94-3.27-9.93-.44-.98-.88-1.97-1.29-3.03-.34-.86-.74-1.79-.39-2.99s.91-1.46 1.57-1.32c.86.16 1.58.92 2.23 1.99 2.47 4.11 3.93 9.49 4.76 15.57s1.08 12.38 1.65 18.56c.37 3.93.87 7.76 2.03 11.11 1.33 3.83 2.34 4.11 3.99.92.16-.3.29-.68.46-.96.62-1.02 1.13-.84 1.39.7.36 2.11.48 4.33.29 6.54-.21 2.61-.47 5.2-.71 7.82-.31 3.41-.35 6.8.12 10.17.12.84.27 1.69.51 2.43.74 2.31 1.89 2.73 2.96 1.02.97-1.54 1.61-3.63 2.18-5.78 1.03-3.93 1.73-8.11 2.37-12.36.76-5.08 1.59-10.11 2.56-15.05a52 52 0 0 1 1.81-6.7c.35-1.02.76-1.89 1.29-2.53 1.88-2.29 3.76-.44 3.95 3.93.1 2.45-.19 4.85-.51 7.18-.19 1.38-.4 2.77-.72 4.05-1.99 8.02-2.9 16.65-3.72 25.32-.47 4.88-1.2 9.63-2.08 14.3-.91 4.86-2.38 8.93-4.16 12.62-1.25 2.55-2.74 4.05-4.47 4.67-2.39.86-4.52-1.08-5.74-5.36a83.6 83.6 0 0 1-2.7-13.84c-1.45-12.96-2.31-26.08-2.93-39.28-.04-.76 0-1.54 0-2.71v.04ZM198.66 68.25c.23.04.56 0 .88.14 1.05.46 1.43 1.73 1.2 3.83-.17 1.56-.59 2.85-1.11 3.99-1.71 3.65-3.75 6.4-5.88 8.97-.65.78-1.37.98-2.02.04-.69-1-.87-2.45-.74-4.11.44-5.66 4.69-12.88 7.67-12.86M242.67 91.94c-.72-2.05-.79-5.3-.22-7.06.16-.52.38-.76.68-.7.33.08.47.62.49 1.14.07 2.39.04 4.75-.94 6.62z" class="cls-5"/><path d="M288.05 72.71c2.98.18 5.71 1.83 8.14 5.06 2.12 2.79 4.13 5.9 6.21 8.81 1.72 2.39 3.41 4.88 5.51 5.88.27.12.53.3.8.38 2.14.7 3.19-.42 3.06-5.14-.03-.96-.16-2.13.39-2.67.57-.54 1.07.14 1.53.78 1.58 2.21 2.63 5.32 3.63 8.51.86 2.73 1.85 5.22 3.14 7.18.62.94 1.26 1.79 2.02 2.23 1.45.84 2.56-.56 2.72-3.53.12-2.35-.19-4.61-.52-6.84-.61-4.15-1.62-7.96-2.6-11.8-1.1-4.33-2.19-8.67-3.26-13.02-.67-2.69-1.11-5.54-1.42-8.45-.19-1.73-.24-3.49.14-5.2.74-3.31 2.34-4.21 3.8-2.07.91 1.34 1.52 3.21 2.08 5.1s1.09 3.87 1.45 5.94c1.22 6.96 3.06 13.18 5.14 19.2 1.86 5.36 3.51 10.97 4.75 17.03a63.4 63.4 0 0 1 1.16 16.83c-.17 2.71-.78 5.08-1.62 7.16-1.55 3.85-3.59 4.98-5.94 3.63-2.35-1.36-4.55-3.35-6.62-5.94-5.43-6.82-10.64-14.34-15.4-22.89-2.86-5.16-6.06-9.21-9.28-13.16-2.93-3.59-6.22-5.62-9.69-6.06-.83-.1-1.66-.04-2.47-.48-.47-.24-1.03-.14-1.11-1.52-.07-1.16 0-2.21.51-2.97.58-.88 1.2-1.6 1.94-1.73.61-.1 1.21-.14 1.78-.22l.03-.02ZM274.86 97.18c-.04-2.27.14-5.18.97-7.8.39-1.22.86-2.31 1.45-3.11 1.02-1.4 1.85-1 2.42 1.14.37 1.38.52 2.87.54 4.45.05 4.67-.41 9.19-.91 13.7-.2 1.79-.62 3.35-1.69 3.53-.89.16-1.64-.94-2.12-3.07-.58-2.57-.64-5.32-.67-8.83ZM315.94 41.79c-.11 0-.23 0-.32-.06-1.09-.94-1.68-2.75-2.06-4.88-.1-.6.03-1.06.28-1.4.21-.28.42-.18.61.1.92 1.36 1.53 3.13 1.82 5.34.06.44-.04.86-.33.92zM254.13 39.04c-.88-2.43-.89-4.9-.97-7.28-.16-4.61.35-8.99 1.32-13.16 1.1-4.79 3.11-7.84 5.44-9.65 2.47-1.91 5.5-.2 7.41 4.55.61 1.54.8 3.37.47 5.3-.35 2.07-1.21 3.19-2.3 2.93-.33-.08-.65-.26-.96-.48-2.34-1.75-4.18-.24-5.75 3.33-1.1 2.49-1.96 5.3-2.76 8.21-.56 1.99-1.01 4.15-1.91 6.22v.02ZM254.47 55.49c-.13 4.11-.53 7.52-1.21 10.81-.12.58-.28 1.34-.67 1.28-.39-.04-.49-.78-.57-1.42-.64-4.69-.19-9.15.62-13.58.21-1.16.67-1.48 1.19-1.3.45.14.54.98.57 1.77.04 1 .06 1.97.07 2.41v.02Z" class="cls-5"/></g></svg>