<?xml version="1.0" encoding="UTF-8"?>
<svg id="objects" xmlns="http://www.w3.org/2000/svg" viewBox="0 0 398.35 398.35">
  <defs>
    <style>
      .cls-1 {
        fill: #fff;
      }

      .cls-2 {
        fill: #a36af7;
        stroke: #000;
        stroke-miterlimit: 10;
      }
    </style>
  </defs>
  <path class="cls-2" d="M397.85,199.18c0,109.73-88.95,198.68-198.68,198.68h0C89.45,397.85.5,308.9.5,199.18h0C.5,89.45,89.45.5,199.18.5h0c109.73,0,198.68,88.95,198.68,198.68h0Z"/>
  <g>
    <circle class="cls-1" cx="128.81" cy="120.47" r="25.59"/>
    <rect class="cls-1" x="107.48" y="163.12" width="42.65" height="127.94" rx="1.91" ry="1.91"/>
    <path class="cls-1" d="M295.14,210.03v72.5c0,4.69-3.84,8.53-8.53,8.53h-25.59c-4.69,0-8.53-3.84-8.53-8.53v-59.71c0-11.77-9.55-21.32-21.32-21.32s-21.32,9.55-21.32,21.32v59.71c0,4.69-3.84,8.53-8.53,8.53h-25.59c-4.69,0-8.53-3.84-8.53-8.53v-110.89c0-4.69,3.84-8.53,8.53-8.53h25.59c4.69,0,8.53,3.84,8.53,8.53v5.46c8.53-11.05,22.65-18.25,38.38-18.25,23.54,0,46.91,17.06,46.91,51.18Z"/>
  </g>
</svg>